<svg xmlns="http://www.w3.org/2000/svg" xmlns:xlink="http://www.w3.org/1999/xlink" version="1.1" xml:space="preserve" viewBox="0 0 1080 1080">
<desc>Created with Fabric.js 5.2.4</desc>
<defs>
</defs>
<g transform="matrix(1 0 0 1 540 540)" id="ddfbe5a4-797a-4700-897f-69cccc0d012d">
</g>
<g transform="matrix(1 0 0 1 540 540)" id="9f981a48-40ec-4c0b-97a3-b42ece1f1096">
<rect style="stroke: none; stroke-width: 1; stroke-dasharray: none; stroke-linecap: butt; stroke-dashoffset: 0; stroke-linejoin: miter; stroke-miterlimit: 4; fill: rgb(255,255,255); fill-rule: nonzero; opacity: 1; visibility: hidden;" vector-effect="non-scaling-stroke" x="-540" y="-540" rx="0" ry="0" width="1080" height="1080"/>
</g>
<g transform="matrix(1 0 0 1 540 540)">
<g style="" vector-effect="non-scaling-stroke">
		<g transform="matrix(1 0 0 1 24.02 -25.38)" clip-path="url(#CLIPPATH_12)">
<clipPath id="CLIPPATH_12">
	<rect transform="matrix(1 0 0 1 0 0)" id="clip0_255_193" x="-169.5" y="-81.58" rx="18.1283" ry="18.1283" width="339" height="163.16"/>
</clipPath>
<rect style="stroke: none; stroke-width: 1; stroke-dasharray: none; stroke-linecap: butt; stroke-dashoffset: 0; stroke-linejoin: miter; stroke-miterlimit: 4; fill: rgb(60,60,62); fill-rule: nonzero; opacity: 1;" vector-effect="non-scaling-stroke" x="-169.5" y="-81.58" rx="18.1283" ry="18.1283" width="339" height="163.16"/>
</g>
		<g transform="matrix(1 0 0 1 0 27.19)" clip-path="url(#CLIPPATH_13)">
<linearGradient id="SVGID_11" gradientUnits="userSpaceOnUse" gradientTransform="matrix(1 0 0 1 0 0)" x1="144.765" y1="54.385" x2="164.33" y2="235.087">
<stop offset="32.0778%" style="stop-color:rgb(45,210,147);stop-opacity: 0.4"/>
<stop offset="100%" style="stop-color:rgb(83,232,139);stop-opacity: 0"/>
</linearGradient>
<clipPath id="CLIPPATH_13">
	<rect transform="matrix(1 0 0 1 24.02 -52.57)" id="clip0_255_193" x="-169.5" y="-81.58" rx="18.1283" ry="18.1283" width="339" height="163.16"/>
</clipPath>
<path style="stroke: none; stroke-width: 1; stroke-dasharray: none; stroke-linecap: butt; stroke-dashoffset: 0; stroke-linejoin: miter; stroke-miterlimit: 4; fill: url(#SVGID_11); fill-rule: nonzero; opacity: 1;" vector-effect="non-scaling-stroke" transform=" translate(-145.48, -134.15)" d="M 110.349 85.6564 C 58.2338 85.6564 36.1094 144.318 -34.1969 144.318 L -48.9465 144.318 L -48.9465 213.914 L 339.906 213.914 L 339.906 54.385 L 332.576 54.385 C 296.194 54.385 257.845 113.587 213.596 113.587 C 169.347 113.587 162.464 85.6564 110.349 85.6564 Z" stroke-linecap="round"/>
</g>
		<g transform="matrix(1 0 0 1 -0.78 -6.25)" clip-path="url(#CLIPPATH_14)">
<clipPath id="CLIPPATH_14">
	<rect transform="matrix(1 0 0 1 24.8 -19.13)" id="clip0_255_193" x="-169.5" y="-81.58" rx="18.1283" ry="18.1283" width="339" height="163.16"/>
</clipPath>
<path style="stroke: rgb(45,210,147); stroke-width: 7.25; stroke-dasharray: none; stroke-linecap: round; stroke-dashoffset: 0; stroke-linejoin: miter; stroke-miterlimit: 4; fill: none; fill-rule: nonzero; opacity: 1;" vector-effect="non-scaling-stroke" transform=" translate(-144.7, -100.71)" d="M -34.1968 144.318 C 36.1096 144.318 58.2339 85.6564 110.349 85.6564 C 162.464 85.6564 169.347 113.587 213.596 113.587 C 257.845 113.587 286.881 59.3703 323.591 57.1043" stroke-linecap="round"/>
</g>
		<g transform="matrix(1 0 0 1 178.11 -49.86)" clip-path="url(#CLIPPATH_15)">
<clipPath id="CLIPPATH_15">
	<rect transform="matrix(1 0 0 1 -154.09 24.48)" id="clip0_255_193" x="-169.5" y="-81.58" rx="18.1283" ry="18.1283" width="339" height="163.16"/>
</clipPath>
<circle style="stroke: none; stroke-width: 1; stroke-dasharray: none; stroke-linecap: butt; stroke-dashoffset: 0; stroke-linejoin: miter; stroke-miterlimit: 4; fill: rgb(45,210,147); fill-rule: nonzero; opacity: 1;" vector-effect="non-scaling-stroke" cx="0" cy="0" r="9.06417"/>
</g>
		<g transform="matrix(1 0 0 1 178.12 -49.85)" clip-path="url(#CLIPPATH_16)">
<clipPath id="CLIPPATH_16">
	<rect transform="matrix(1 0 0 1 -154.09 24.48)" id="clip0_255_193" x="-169.5" y="-81.58" rx="18.1283" ry="18.1283" width="339" height="163.16"/>
</clipPath>
<circle style="stroke: rgb(255,255,255); stroke-width: 3.63; stroke-dasharray: none; stroke-linecap: butt; stroke-dashoffset: 0; stroke-linejoin: miter; stroke-miterlimit: 4; fill: none; fill-rule: nonzero; opacity: 1;" vector-effect="non-scaling-stroke" cx="0" cy="0" r="7.25134"/>
</g>
		<g transform="matrix(1 0 0 1 178.11 -49.85)" clip-path="url(#CLIPPATH_17)">
<clipPath id="CLIPPATH_17">
	<rect transform="matrix(1 0 0 1 -154.09 24.48)" id="clip0_255_193" x="-169.5" y="-81.58" rx="18.1283" ry="18.1283" width="339" height="163.16"/>
</clipPath>
<circle style="stroke: none; stroke-width: 1; stroke-dasharray: none; stroke-linecap: butt; stroke-dashoffset: 0; stroke-linejoin: miter; stroke-miterlimit: 4; fill: rgb(255,255,255); fill-rule: nonzero; opacity: 1;" vector-effect="non-scaling-stroke" cx="0" cy="0" r="2.71925"/>
</g>
		<g transform="matrix(1 0 0 1 119.86 -77.45)" clip-path="url(#CLIPPATH_18)">
<clipPath id="CLIPPATH_18">
	<rect transform="matrix(1 0 0 1 -95.84 52.07)" id="clip0_255_193" x="-169.5" y="-81.58" rx="18.1283" ry="18.1283" width="339" height="163.16"/>
</clipPath>
<path style="stroke: none; stroke-width: 1; stroke-dasharray: none; stroke-linecap: butt; stroke-dashoffset: 0; stroke-linejoin: miter; stroke-miterlimit: 4; fill: rgb(255,255,255); fill-rule: nonzero; opacity: 1;" vector-effect="non-scaling-stroke" transform=" translate(-265.34, -29.51)" d="M 217.011 17.1367 L 221.565 17.1367 C 224.601 17.1367 226.653 17.2538 227.723 17.4881 C 228.803 17.7225 229.679 18.3235 230.351 19.2913 C 231.034 20.2489 231.375 21.7822 231.375 23.891 C 231.375 25.8164 231.136 27.1102 230.657 27.7724 C 230.178 28.4346 229.236 28.8319 227.83 28.9643 C 229.103 29.2802 229.959 29.7029 230.397 30.2327 C 230.835 30.7624 231.105 31.2514 231.207 31.6997 C 231.319 32.1378 231.375 33.3552 231.375 35.3519 L 231.375 41.877 L 225.4 41.877 L 225.4 33.6557 C 225.4 32.3313 225.293 31.5112 225.079 31.1954 C 224.876 30.8796 224.331 30.7217 223.444 30.7217 L 223.444 41.877 L 217.011 41.877 L 217.011 17.1367 Z M 223.444 21.3696 L 223.444 26.8708 C 224.168 26.8708 224.672 26.774 224.957 26.5805 C 225.253 26.3767 225.4 25.7298 225.4 24.6398 L 225.4 23.2797 C 225.4 22.4953 225.258 21.9808 224.972 21.7363 C 224.697 21.4918 224.188 21.3696 223.444 21.3696 Z M 246.305 28.078 L 240.834 28.078 L 240.834 26.9778 C 240.834 26.0405 240.778 25.4497 240.666 25.2052 C 240.564 24.9505 240.3 24.8231 239.872 24.8231 C 239.525 24.8231 239.266 24.9403 239.092 25.1746 C 238.919 25.3987 238.833 25.74 238.833 26.1984 C 238.833 26.8199 238.873 27.2783 238.955 27.5738 C 239.046 27.859 239.306 28.1748 239.734 28.5212 C 240.172 28.8676 241.064 29.3718 242.408 30.034 C 244.201 30.9102 245.378 31.7353 245.938 32.5096 C 246.499 33.2838 246.779 34.4096 246.779 35.8868 C 246.779 37.5371 246.565 38.7851 246.137 39.6307 C 245.709 40.466 244.991 41.1129 243.982 41.5714 C 242.984 42.0196 241.777 42.2437 240.361 42.2437 C 238.792 42.2437 237.447 41.9992 236.326 41.5102 C 235.216 41.0212 234.452 40.3591 234.034 39.5237 C 233.617 38.6883 233.408 37.4251 233.408 35.7339 L 233.408 34.7559 L 238.878 34.7559 L 238.878 36.0396 C 238.878 37.1296 238.945 37.8377 239.077 38.1637 C 239.22 38.4897 239.495 38.6527 239.902 38.6527 C 240.34 38.6527 240.646 38.5457 240.819 38.3318 C 240.992 38.1076 241.079 37.6441 241.079 36.9412 C 241.079 35.9733 240.967 35.3672 240.743 35.1227 C 240.508 34.8782 239.311 34.1549 237.152 32.9528 C 235.338 31.934 234.233 31.012 233.836 30.1868 C 233.438 29.3515 233.24 28.3633 233.24 27.2223 C 233.24 25.6025 233.454 24.4105 233.881 23.6465 C 234.309 22.8722 235.033 22.2763 236.051 21.8586 C 237.08 21.4409 238.272 21.232 239.627 21.232 C 240.972 21.232 242.113 21.4052 243.05 21.7516 C 243.998 22.0878 244.721 22.536 245.22 23.0964 C 245.729 23.6567 246.035 24.1762 246.137 24.655 C 246.249 25.1339 246.305 25.8826 246.305 26.9014 L 246.305 28.078 Z M 252.54 36.8342 L 252.54 41.877 L 247.879 41.877 L 247.879 36.8342 L 252.54 36.8342 Z M 269.257 17.1367 L 269.257 41.877 L 263.084 41.877 L 263.084 28.6129 C 263.084 26.6976 263.038 25.5464 262.946 25.1593 C 262.855 24.7722 262.6 24.4819 262.182 24.2883 C 261.775 24.0845 260.858 23.9827 259.432 23.9827 L 258.82 23.9827 L 258.82 21.0945 C 261.805 20.4527 264.072 19.1334 265.621 17.1367 L 269.257 17.1367 Z M 281.177 17.1367 L 281.177 41.877 L 275.003 41.877 L 275.003 28.6129 C 275.003 26.6976 274.957 25.5464 274.866 25.1593 C 274.774 24.7722 274.519 24.4819 274.102 24.2883 C 273.694 24.0845 272.777 23.9827 271.351 23.9827 L 270.74 23.9827 L 270.74 21.0945 C 273.725 20.4527 275.991 19.1334 277.54 17.1367 L 281.177 17.1367 Z M 296.886 37.6594 L 296.886 41.877 L 283.301 41.877 L 283.301 38.347 C 287.325 31.7659 289.714 27.696 290.468 26.1373 C 291.232 24.5684 291.614 23.3459 291.614 22.4698 C 291.614 21.7974 291.497 21.2983 291.262 20.9723 C 291.038 20.6361 290.692 20.468 290.223 20.468 C 289.755 20.468 289.403 20.6514 289.169 21.0181 C 288.945 21.3849 288.833 22.1133 288.833 23.2033 L 288.833 25.5566 L 283.301 25.5566 L 283.301 24.655 C 283.301 23.2695 283.372 22.1795 283.515 21.3849 C 283.658 20.58 284.009 19.7905 284.569 19.0163 C 285.13 18.242 285.858 17.6562 286.755 17.2589 C 287.651 16.8616 288.726 16.663 289.979 16.663 C 292.434 16.663 294.288 17.2742 295.541 18.4967 C 296.804 19.709 297.436 21.2473 297.436 23.1116 C 297.436 24.5277 297.08 26.0253 296.366 27.6043 C 295.663 29.1834 293.58 32.5351 290.116 37.6594 L 296.886 37.6594 Z M 310.884 27.8641 C 311.821 28.1799 312.519 28.6995 312.977 29.4228 C 313.436 30.1359 313.665 31.8168 313.665 34.4656 C 313.665 36.4318 313.441 37.9599 312.992 39.05 C 312.544 40.1298 311.77 40.955 310.67 41.5255 C 309.569 42.0858 308.158 42.366 306.437 42.366 C 304.481 42.366 302.942 42.04 301.822 41.388 C 300.711 40.7258 299.978 39.921 299.621 38.9736 C 299.275 38.0159 299.102 36.3605 299.102 34.0072 L 299.102 32.0512 L 305.275 32.0512 L 305.275 36.0701 C 305.275 37.1398 305.336 37.8224 305.459 38.1178 C 305.591 38.4031 305.876 38.5457 306.314 38.5457 C 306.793 38.5457 307.109 38.3623 307.262 37.9956 C 307.415 37.6288 307.491 36.6712 307.491 35.1227 L 307.491 33.4112 C 307.491 32.4638 307.384 31.771 307.17 31.3329 C 306.956 30.8949 306.64 30.6096 306.223 30.4772 C 305.805 30.3346 304.995 30.2531 303.793 30.2327 L 303.793 26.6416 C 305.26 26.6416 306.167 26.5856 306.513 26.4735 C 306.86 26.3614 307.109 26.1169 307.262 25.74 C 307.415 25.3631 307.491 24.7722 307.491 23.9674 L 307.491 22.5921 C 307.491 21.7261 307.399 21.1556 307.216 20.8806 C 307.043 20.6055 306.768 20.468 306.391 20.468 C 305.963 20.468 305.668 20.6157 305.505 20.9111 C 305.352 21.1964 305.275 21.8127 305.275 22.7602 L 305.275 24.7926 L 299.102 24.7926 L 299.102 22.6838 C 299.102 20.3203 299.642 18.7259 300.722 17.9007 C 301.801 17.0654 303.518 16.6477 305.871 16.6477 C 308.816 16.6477 310.812 17.2233 311.862 18.3744 C 312.911 19.5256 313.436 21.1251 313.436 23.1728 C 313.436 24.5583 313.247 25.5617 312.87 26.1832 C 312.493 26.7944 311.831 27.3547 310.884 27.8641 Z" stroke-linecap="round"/>
</g>
		<g transform="matrix(1 0 0 1 -58.65 -65.31)" clip-path="url(#CLIPPATH_19)">
<clipPath id="CLIPPATH_19">
	<rect transform="matrix(1 0 0 1 82.67 39.94)" id="clip0_255_193" x="-169.5" y="-81.58" rx="18.1283" ry="18.1283" width="339" height="163.16"/>
</clipPath>
<path style="stroke: none; stroke-width: 1; stroke-dasharray: none; stroke-linecap: butt; stroke-dashoffset: 0; stroke-linejoin: miter; stroke-miterlimit: 4; fill: rgb(254,254,255); fill-rule: nonzero; opacity: 1;" vector-effect="non-scaling-stroke" transform=" translate(-86.83, -41.64)" d="M 17.445 34.877 L 17.445 15.9383 L 20.0863 15.9383 L 20.0863 34.877 L 17.445 34.877 Z M 10.8137 17.7928 L 10.8137 15.3763 L 26.6896 15.3763 L 26.6896 17.7928 L 10.8137 17.7928 Z M 38.8283 34.877 L 38.8283 27.0936 C 38.8283 26.082 38.5099 25.2484 37.8729 24.5928 C 37.236 23.9371 36.4118 23.6093 35.4002 23.6093 C 34.7259 23.6093 34.1264 23.7592 33.6019 24.0589 C 33.0774 24.3586 32.6653 24.7707 32.3656 25.2953 C 32.0658 25.8198 31.916 26.4192 31.916 27.0936 L 30.8763 26.5035 C 30.8763 25.492 31.1011 24.5928 31.5507 23.806 C 32.0003 23.0192 32.6278 22.4011 33.4333 21.9515 C 34.2388 21.4832 35.1473 21.249 36.1589 21.249 C 37.1705 21.249 38.0603 21.4738 38.8283 21.9234 C 39.6151 22.373 40.2333 23.0005 40.6828 23.806 C 41.1324 24.6115 41.3572 25.5388 41.3572 26.5878 L 41.3572 34.877 L 38.8283 34.877 Z M 29.3871 34.877 L 29.3871 14.8144 L 31.916 14.8144 L 31.916 34.877 L 29.3871 34.877 Z M 44.8092 34.877 L 44.8092 21.53 L 47.3381 21.53 L 47.3381 34.877 L 44.8092 34.877 Z M 46.0737 18.8606 C 45.6053 18.8606 45.2213 18.7107 44.9216 18.411 C 44.6219 18.0926 44.472 17.6992 44.472 17.2309 C 44.472 16.7813 44.6219 16.4066 44.9216 16.1069 C 45.2213 15.7885 45.6053 15.6292 46.0737 15.6292 C 46.542 15.6292 46.926 15.7885 47.2257 16.1069 C 47.5254 16.4066 47.6753 16.7813 47.6753 17.2309 C 47.6753 17.6992 47.5254 18.0926 47.2257 18.411 C 46.926 18.7107 46.542 18.8606 46.0737 18.8606 Z M 55.3079 35.158 C 54.5586 35.158 53.8467 35.0643 53.1724 34.877 C 52.5167 34.6709 51.9079 34.39 51.3459 34.034 C 50.784 33.6594 50.2969 33.2192 49.8848 32.7134 L 51.5145 31.0836 C 52.0016 31.6831 52.5636 32.1327 53.2005 32.4324 C 53.8374 32.7134 54.5492 32.8539 55.336 32.8539 C 56.1228 32.8539 56.7316 32.7227 57.1624 32.4605 C 57.5933 32.1795 57.8087 31.7955 57.8087 31.3084 C 57.8087 30.8214 57.6307 30.4467 57.2748 30.1845 C 56.9376 29.9035 56.4974 29.6787 55.9542 29.5101 C 55.4109 29.3228 54.8302 29.1448 54.212 28.9762 C 53.6126 28.7889 53.0412 28.5547 52.498 28.2737 C 51.9548 27.9928 51.5052 27.6087 51.1492 27.1217 C 50.8121 26.6346 50.6435 25.9884 50.6435 25.1829 C 50.6435 24.3774 50.8402 23.6843 51.2335 23.1035 C 51.6269 22.5041 52.1702 22.0452 52.8633 21.7267 C 53.5751 21.4082 54.4275 21.249 55.4203 21.249 C 56.4693 21.249 57.3966 21.4363 58.2021 21.811 C 59.0263 22.1669 59.7007 22.7102 60.2252 23.4407 L 58.5955 25.0705 C 58.2208 24.5834 57.7525 24.2088 57.1905 23.9465 C 56.6473 23.6843 56.0291 23.5531 55.336 23.5531 C 54.6054 23.5531 54.0434 23.6843 53.6501 23.9465 C 53.2754 24.19 53.0881 24.5366 53.0881 24.9862 C 53.0881 25.4358 53.2567 25.7823 53.5939 26.0258 C 53.931 26.2694 54.3713 26.4754 54.9145 26.644 C 55.4765 26.8126 56.0572 26.9906 56.6566 27.1779 C 57.2561 27.3465 57.8274 27.5806 58.3707 27.8804 C 58.9139 28.1801 59.3541 28.5828 59.6913 29.0886 C 60.0472 29.5944 60.2252 30.2594 60.2252 31.0836 C 60.2252 32.3387 59.7756 33.3316 58.8765 34.0621 C 57.996 34.7927 56.8065 35.158 55.3079 35.158 Z M 69.3508 34.877 L 69.3508 15.3763 L 71.2053 15.3763 L 79.4664 28.9481 L 78.2019 28.9481 L 86.463 15.3763 L 88.3175 15.3763 L 88.3175 34.877 L 85.6762 34.877 L 85.6762 20.0127 L 86.2944 20.1813 L 79.7755 30.887 L 77.9209 30.887 L 71.402 20.1813 L 71.9921 20.0127 L 71.9921 34.877 L 69.3508 34.877 Z M 98.5699 35.158 C 97.2586 35.158 96.0785 34.8489 95.0295 34.2307 C 93.9804 33.6125 93.1468 32.7789 92.5287 31.7299 C 91.9105 30.6622 91.6014 29.4726 91.6014 28.1614 C 91.6014 26.8688 91.9105 25.7074 92.5287 24.6771 C 93.1468 23.6281 93.9804 22.7945 95.0295 22.1763 C 96.0785 21.5581 97.2586 21.249 98.5699 21.249 C 99.8625 21.249 101.033 21.5581 102.082 22.1763 C 103.15 22.7757 103.993 23.6 104.611 24.649 C 105.229 25.698 105.538 26.8688 105.538 28.1614 C 105.538 29.4726 105.229 30.6622 104.611 31.7299 C 103.993 32.7789 103.15 33.6125 102.082 34.2307 C 101.033 34.8489 99.8625 35.158 98.5699 35.158 Z M 98.5699 32.7134 C 99.4129 32.7134 100.162 32.5167 100.818 32.1233 C 101.473 31.7299 101.989 31.196 102.363 30.5217 C 102.738 29.8286 102.925 29.0418 102.925 28.1614 C 102.925 27.2997 102.729 26.5316 102.335 25.8572 C 101.961 25.1829 101.445 24.6584 100.79 24.2837 C 100.153 23.8903 99.4129 23.6936 98.5699 23.6936 C 97.727 23.6936 96.9777 23.8903 96.322 24.2837 C 95.6664 24.6584 95.1512 25.1829 94.7766 25.8572 C 94.4019 26.5316 94.2146 27.2997 94.2146 28.1614 C 94.2146 29.0418 94.4019 29.8286 94.7766 30.5217 C 95.1512 31.196 95.6664 31.7299 96.322 32.1233 C 96.9777 32.5167 97.727 32.7134 98.5699 32.7134 Z M 117.829 34.877 L 117.829 27.0936 C 117.829 26.082 117.511 25.2484 116.874 24.5928 C 116.237 23.9371 115.413 23.6093 114.401 23.6093 C 113.727 23.6093 113.127 23.7592 112.603 24.0589 C 112.078 24.3586 111.666 24.7707 111.366 25.2953 C 111.067 25.8198 110.917 26.4192 110.917 27.0936 L 109.877 26.5035 C 109.877 25.492 110.102 24.5928 110.551 23.806 C 111.001 23.0192 111.629 22.4011 112.434 21.9515 C 113.24 21.4832 114.148 21.249 115.16 21.249 C 116.171 21.249 117.061 21.5019 117.829 22.0077 C 118.616 22.5135 119.234 23.1785 119.684 24.0027 C 120.133 24.8082 120.358 25.6699 120.358 26.5878 L 120.358 34.877 L 117.829 34.877 Z M 108.388 34.877 L 108.388 21.53 L 110.917 21.53 L 110.917 34.877 L 108.388 34.877 Z M 125.668 34.877 L 125.668 15.9383 L 128.197 15.9383 L 128.197 34.877 L 125.668 34.877 Z M 122.381 23.8341 L 122.381 21.53 L 131.485 21.53 L 131.485 23.8341 L 122.381 23.8341 Z M 143.404 34.877 L 143.404 27.0936 C 143.404 26.082 143.085 25.2484 142.448 24.5928 C 141.811 23.9371 140.987 23.6093 139.975 23.6093 C 139.301 23.6093 138.702 23.7592 138.177 24.0589 C 137.653 24.3586 137.24 24.7707 136.941 25.2953 C 136.641 25.8198 136.491 26.4192 136.491 27.0936 L 135.452 26.5035 C 135.452 25.492 135.676 24.5928 136.126 23.806 C 136.575 23.0192 137.203 22.4011 138.009 21.9515 C 138.814 21.4832 139.723 21.249 140.734 21.249 C 141.746 21.249 142.635 21.4738 143.404 21.9234 C 144.19 22.373 144.808 23.0005 145.258 23.806 C 145.708 24.6115 145.932 25.5388 145.932 26.5878 L 145.932 34.877 L 143.404 34.877 Z M 133.962 34.877 L 133.962 14.8144 L 136.491 14.8144 L 136.491 34.877 L 133.962 34.877 Z M 148.473 21.5862 L 150.215 18.2424 L 151.114 18.0176 C 151.021 18.2237 150.899 18.3923 150.749 18.5234 C 150.618 18.6545 150.449 18.7201 150.243 18.7201 C 149.85 18.7201 149.485 18.5609 149.147 18.2424 C 148.829 17.9052 148.67 17.4931 148.67 17.0061 C 148.67 16.4816 148.848 16.032 149.204 15.6573 C 149.578 15.2827 150.028 15.0954 150.552 15.0954 C 151.039 15.0954 151.47 15.2827 151.845 15.6573 C 152.219 16.032 152.407 16.4816 152.407 17.0061 C 152.407 17.2121 152.36 17.465 152.266 17.7647 C 152.191 18.0457 152.032 18.4204 151.789 18.8887 L 149.934 22.373 L 148.473 21.5862 Z M 157.935 35.158 C 157.186 35.158 156.474 35.0643 155.799 34.877 C 155.144 34.6709 154.535 34.39 153.973 34.034 C 153.411 33.6594 152.924 33.2192 152.512 32.7134 L 154.141 31.0836 C 154.629 31.6831 155.191 32.1327 155.827 32.4324 C 156.464 32.7134 157.176 32.8539 157.963 32.8539 C 158.75 32.8539 159.359 32.7227 159.789 32.4605 C 160.22 32.1795 160.436 31.7955 160.436 31.3084 C 160.436 30.8214 160.258 30.4467 159.902 30.1845 C 159.565 29.9035 159.124 29.6787 158.581 29.5101 C 158.038 29.3228 157.457 29.1448 156.839 28.9762 C 156.24 28.7889 155.668 28.5547 155.125 28.2737 C 154.582 27.9928 154.132 27.6087 153.776 27.1217 C 153.439 26.6346 153.27 25.9884 153.27 25.1829 C 153.27 24.3774 153.467 23.6843 153.86 23.1035 C 154.254 22.5041 154.797 22.0452 155.49 21.7267 C 156.202 21.4082 157.054 21.249 158.047 21.249 C 159.096 21.249 160.024 21.4363 160.829 21.811 C 161.653 22.1669 162.328 22.7102 162.852 23.4407 L 161.222 25.0705 C 160.848 24.5834 160.379 24.2088 159.817 23.9465 C 159.274 23.6843 158.656 23.5531 157.963 23.5531 C 157.232 23.5531 156.67 23.6843 156.277 23.9465 C 155.902 24.19 155.715 24.5366 155.715 24.9862 C 155.715 25.4358 155.884 25.7823 156.221 26.0258 C 156.558 26.2694 156.998 26.4754 157.541 26.644 C 158.103 26.8126 158.684 26.9906 159.284 27.1779 C 159.883 27.3465 160.454 27.5806 160.998 27.8804 C 161.541 28.1801 161.981 28.5828 162.318 29.0886 C 162.674 29.5944 162.852 30.2594 162.852 31.0836 C 162.852 32.3387 162.403 33.3316 161.503 34.0621 C 160.623 34.7927 159.433 35.158 157.935 35.158 Z M 12.2748 62.877 L 12.2748 43.3763 L 14.9161 43.3763 L 14.9161 62.877 L 12.2748 62.877 Z M 14.0731 62.877 L 14.0731 60.4605 L 25.2565 60.4605 L 25.2565 62.877 L 14.0731 62.877 Z M 14.0731 54.0539 L 14.0731 51.7498 L 24.3293 51.7498 L 24.3293 54.0539 L 14.0731 54.0539 Z M 14.0731 45.7928 L 14.0731 43.3763 L 25.116 43.3763 L 25.116 45.7928 L 14.0731 45.7928 Z M 37.1661 62.877 L 33.0074 57.0324 L 32.5298 56.5828 L 27.2753 49.53 L 30.338 49.53 L 34.1314 54.7283 L 34.6091 55.1217 L 40.2289 62.877 L 37.1661 62.877 Z M 27.0224 62.877 L 32.5298 55.4589 L 33.9628 57.3134 L 30.0009 62.877 L 27.0224 62.877 Z M 34.8058 56.5547 L 33.3446 54.7564 L 37.0256 49.53 L 39.976 49.53 L 34.8058 56.5547 Z M 49.5832 63.158 C 48.5716 63.158 47.6537 62.9519 46.8295 62.5398 C 46.024 62.109 45.3777 61.5189 44.8906 60.7696 C 44.4036 60.0203 44.132 59.1679 44.0758 58.2126 L 44.0758 54.1944 C 44.132 53.2203 44.4036 52.368 44.8906 51.6374 C 45.3964 50.8881 46.0521 50.3074 46.8576 49.8953 C 47.6818 49.4644 48.5903 49.249 49.5832 49.249 C 50.8008 49.249 51.8966 49.5581 52.8707 50.1763 C 53.8636 50.7945 54.641 51.6281 55.203 52.6771 C 55.7649 53.7261 56.0459 54.9063 56.0459 56.2176 C 56.0459 57.5288 55.7649 58.709 55.203 59.758 C 54.641 60.807 53.8636 61.6406 52.8707 62.2588 C 51.8966 62.8583 50.8008 63.158 49.5832 63.158 Z M 49.1617 60.7696 C 50.0047 60.7696 50.7446 60.5729 51.3815 60.1795 C 52.0184 59.7861 52.5242 59.2522 52.8988 58.5779 C 53.2735 57.8848 53.4608 57.0886 53.4608 56.1895 C 53.4608 55.309 53.2735 54.5222 52.8988 53.8291 C 52.5242 53.136 52.0184 52.6022 51.3815 52.2275 C 50.7446 51.8341 50.014 51.6374 49.1898 51.6374 C 48.3468 51.6374 47.6069 51.8341 46.97 52.2275 C 46.3331 52.6022 45.8366 53.136 45.4807 53.8291 C 45.1248 54.5222 44.9468 55.3184 44.9468 56.2176 C 44.9468 57.098 45.1154 57.8848 45.4526 58.5779 C 45.8085 59.2522 46.305 59.7861 46.9419 60.1795 C 47.5975 60.5729 48.3375 60.7696 49.1617 60.7696 Z M 42.5584 68.4687 L 42.5584 49.53 L 45.0873 49.53 L 45.0873 53.0424 L 44.6097 56.2737 L 45.0873 59.5332 L 45.0873 68.4687 L 42.5584 68.4687 Z M 65.0947 63.158 C 63.7646 63.158 62.5658 62.8583 61.498 62.2588 C 60.4302 61.6406 59.5873 60.807 58.9691 59.758 C 58.3509 58.709 58.0418 57.5195 58.0418 56.1895 C 58.0418 54.8782 58.3415 53.698 58.941 52.649 C 59.5592 51.6 60.3834 50.7757 61.4137 50.1763 C 62.4627 49.5581 63.6335 49.249 64.9261 49.249 C 66.1624 49.249 67.2489 49.53 68.1855 50.092 C 69.1409 50.654 69.8808 51.4314 70.4054 52.4242 C 70.9486 53.417 71.2202 54.541 71.2202 55.7961 C 71.2202 55.9834 71.2109 56.1895 71.1921 56.4142 C 71.1734 56.6203 71.1359 56.8638 71.0797 57.1448 L 59.8121 57.1448 L 59.8121 55.0374 L 69.731 55.0374 L 68.8037 55.8523 C 68.8037 54.9531 68.6445 54.1944 68.326 53.5763 C 68.0076 52.9393 67.558 52.4523 66.9773 52.1151 C 66.3966 51.7592 65.6941 51.5812 64.8699 51.5812 C 64.0082 51.5812 63.2495 51.7686 62.5939 52.1432 C 61.9382 52.5179 61.4324 53.0424 61.0765 53.7167 C 60.7206 54.3911 60.5426 55.1873 60.5426 56.1052 C 60.5426 57.0418 60.73 57.866 61.1046 58.5779 C 61.4793 59.271 62.0131 59.8142 62.7063 60.2076 C 63.3994 60.5823 64.1955 60.7696 65.0947 60.7696 C 65.844 60.7696 66.5277 60.6385 67.1459 60.3762 C 67.7828 60.1139 68.326 59.7206 68.7756 59.196 L 70.4054 60.8539 C 69.7684 61.6032 68.9817 62.1745 68.045 62.5679 C 67.1271 62.9613 66.1437 63.158 65.0947 63.158 Z M 83.4189 62.877 L 83.4189 55.0936 C 83.4189 54.082 83.1004 53.2484 82.4635 52.5928 C 81.8266 51.9371 81.0024 51.6093 79.9908 51.6093 C 79.3164 51.6093 78.717 51.7592 78.1925 52.0589 C 77.668 52.3586 77.2559 52.7707 76.9561 53.2953 C 76.6564 53.8198 76.5066 54.4192 76.5066 55.0936 L 75.4669 54.5035 C 75.4669 53.492 75.6917 52.5928 76.1413 51.806 C 76.5909 51.0192 77.2184 50.4011 78.0239 49.9515 C 78.8294 49.4832 79.7379 49.249 80.7495 49.249 C 81.7611 49.249 82.6509 49.5019 83.4189 50.0077 C 84.2057 50.5135 84.8238 51.1785 85.2734 52.0027 C 85.723 52.8082 85.9478 53.6699 85.9478 54.5878 L 85.9478 62.877 L 83.4189 62.877 Z M 73.9777 62.877 L 73.9777 49.53 L 76.5066 49.53 L 76.5066 62.877 L 73.9777 62.877 Z M 93.6146 63.158 C 92.8653 63.158 92.1535 63.0643 91.4791 62.877 C 90.8235 62.6709 90.2147 62.39 89.6527 62.034 C 89.0907 61.6594 88.6037 61.2192 88.1915 60.7134 L 89.8213 59.0836 C 90.3083 59.6831 90.8703 60.1327 91.5072 60.4324 C 92.1441 60.7134 92.856 60.8539 93.6427 60.8539 C 94.4295 60.8539 95.0383 60.7227 95.4692 60.4605 C 95.9 60.1795 96.1154 59.7955 96.1154 59.3084 C 96.1154 58.8214 95.9375 58.4467 95.5816 58.1845 C 95.2444 57.9035 94.8042 57.6787 94.2609 57.5101 C 93.7177 57.3228 93.137 57.1448 92.5188 56.9762 C 91.9193 56.7889 91.348 56.5547 90.8047 56.2737 C 90.2615 55.9928 89.8119 55.6087 89.456 55.1217 C 89.1188 54.6346 88.9502 53.9884 88.9502 53.1829 C 88.9502 52.3774 89.1469 51.6843 89.5403 51.1035 C 89.9337 50.5041 90.4769 50.0452 91.17 49.7267 C 91.8819 49.4082 92.7342 49.249 93.727 49.249 C 94.7761 49.249 95.7033 49.4363 96.5088 49.811 C 97.3331 50.1669 98.0074 50.7102 98.5319 51.4407 L 96.9022 53.0705 C 96.5276 52.5834 96.0592 52.2088 95.4973 51.9465 C 94.954 51.6843 94.3358 51.5531 93.6427 51.5531 C 92.9122 51.5531 92.3502 51.6843 91.9568 51.9465 C 91.5821 52.19 91.3948 52.5366 91.3948 52.9862 C 91.3948 53.4358 91.5634 53.7823 91.9006 54.0258 C 92.2378 54.2694 92.678 54.4754 93.2212 54.644 C 93.7832 54.8126 94.3639 54.9906 94.9634 55.1779 C 95.5628 55.3465 96.1342 55.5806 96.6774 55.8804 C 97.2207 56.1801 97.6609 56.5828 97.9981 57.0886 C 98.354 57.5944 98.5319 58.2594 98.5319 59.0836 C 98.5319 60.3387 98.0824 61.3316 97.1832 62.0621 C 96.3028 62.7927 95.1132 63.158 93.6146 63.158 Z M 107.545 63.158 C 106.215 63.158 105.016 62.8583 103.948 62.2588 C 102.88 61.6406 102.038 60.807 101.419 59.758 C 100.801 58.709 100.492 57.5195 100.492 56.1895 C 100.492 54.8782 100.792 53.698 101.391 52.649 C 102.009 51.6 102.834 50.7757 103.864 50.1763 C 104.913 49.5581 106.084 49.249 107.376 49.249 C 108.613 49.249 109.699 49.53 110.636 50.092 C 111.591 50.654 112.331 51.4314 112.856 52.4242 C 113.399 53.417 113.67 54.541 113.67 55.7961 C 113.67 55.9834 113.661 56.1895 113.642 56.4142 C 113.624 56.6203 113.586 56.8638 113.53 57.1448 L 102.262 57.1448 L 102.262 55.0374 L 112.181 55.0374 L 111.254 55.8523 C 111.254 54.9531 111.095 54.1944 110.776 53.5763 C 110.458 52.9393 110.008 52.4523 109.428 52.1151 C 108.847 51.7592 108.144 51.5812 107.32 51.5812 C 106.458 51.5812 105.7 51.7686 105.044 52.1432 C 104.388 52.5179 103.883 53.0424 103.527 53.7167 C 103.171 54.3911 102.993 55.1873 102.993 56.1052 C 102.993 57.0418 103.18 57.866 103.555 58.5779 C 103.93 59.271 104.463 59.8142 105.156 60.2076 C 105.85 60.5823 106.646 60.7696 107.545 60.7696 C 108.294 60.7696 108.978 60.6385 109.596 60.3762 C 110.233 60.1139 110.776 59.7206 111.226 59.196 L 112.856 60.8539 C 112.219 61.6032 111.432 62.1745 110.495 62.5679 C 109.577 62.9613 108.594 63.158 107.545 63.158 Z M 120.671 63.158 C 119.922 63.158 119.21 63.0643 118.535 62.877 C 117.88 62.6709 117.271 62.39 116.709 62.034 C 116.147 61.6594 115.66 61.2192 115.248 60.7134 L 116.877 59.0836 C 117.365 59.6831 117.927 60.1327 118.563 60.4324 C 119.2 60.7134 119.912 60.8539 120.699 60.8539 C 121.486 60.8539 122.095 60.7227 122.525 60.4605 C 122.956 60.1795 123.172 59.7955 123.172 59.3084 C 123.172 58.8214 122.994 58.4467 122.638 58.1845 C 122.301 57.9035 121.86 57.6787 121.317 57.5101 C 120.774 57.3228 120.193 57.1448 119.575 56.9762 C 118.976 56.7889 118.404 56.5547 117.861 56.2737 C 117.318 55.9928 116.868 55.6087 116.512 55.1217 C 116.175 54.6346 116.006 53.9884 116.006 53.1829 C 116.006 52.3774 116.203 51.6843 116.596 51.1035 C 116.99 50.5041 117.533 50.0452 118.226 49.7267 C 118.938 49.4082 119.79 49.249 120.783 49.249 C 121.832 49.249 122.76 49.4363 123.565 49.811 C 124.389 50.1669 125.064 50.7102 125.588 51.4407 L 123.958 53.0705 C 123.584 52.5834 123.115 52.2088 122.553 51.9465 C 122.01 51.6843 121.392 51.5531 120.699 51.5531 C 119.968 51.5531 119.406 51.6843 119.013 51.9465 C 118.638 52.19 118.451 52.5366 118.451 52.9862 C 118.451 53.4358 118.62 53.7823 118.957 54.0258 C 119.294 54.2694 119.734 54.4754 120.277 54.644 C 120.839 54.8126 121.42 54.9906 122.02 55.1779 C 122.619 55.3465 123.19 55.5806 123.734 55.8804 C 124.277 56.1801 124.717 56.5828 125.054 57.0886 C 125.41 57.5944 125.588 58.2594 125.588 59.0836 C 125.588 60.3387 125.139 61.3316 124.239 62.0621 C 123.359 62.7927 122.169 63.158 120.671 63.158 Z" stroke-linecap="round"/>
</g>
</g>
</g>
<g transform="matrix(1.66 0 0 0.66 657.86 460.53)" id="8d379cc5-3272-4f3e-ab4c-377ac51de66f">
<rect style="stroke: rgb(0,0,0); stroke-width: 0; stroke-dasharray: none; stroke-linecap: butt; stroke-dashoffset: 0; stroke-linejoin: miter; stroke-miterlimit: 4; fill: rgb(62,60,60); fill-rule: nonzero; opacity: 1;" vector-effect="non-scaling-stroke" x="-33.085" y="-33.085" rx="0" ry="0" width="66.17" height="66.17"/>
</g>
<g transform="matrix(1 0 0 1 649.16 466.89)" style="" id="98f96336-e6f2-42c3-8dd6-7af8b62796f3">
		<text xml:space="preserve" font-family="Lato" font-size="26" font-style="normal" font-weight="400" style="stroke: none; stroke-width: 1; stroke-dasharray: none; stroke-linecap: butt; stroke-dashoffset: 0; stroke-linejoin: miter; stroke-miterlimit: 4; fill: rgb(0,0,0); fill-opacity: 0; fill-rule: nonzero; opacity: 1; white-space: pre;"><tspan x="-44.3" y="8.17">Offline!</tspan></text>
</g>
<g transform="matrix(1 0 0 1 651.68 466.62)" style="" id="c5ddf710-a795-4a38-b220-fa9856c717ac">
		<text xml:space="preserve" font-family="Lato" font-size="30" font-style="normal" font-weight="400" style="stroke: none; stroke-width: 1; stroke-dasharray: none; stroke-linecap: butt; stroke-dashoffset: 0; stroke-linejoin: miter; stroke-miterlimit: 4; fill: rgb(210,18,66); fill-rule: nonzero; opacity: 1; white-space: pre;"><tspan x="-54.44" y="9.42">(Offline)</tspan></text>
</g>
</svg>